<svg width="510" height="230" viewBox="0 0 510 230" fill="none" xmlns="http://www.w3.org/2000/svg">
<circle cx="251" cy="98.2145" r="98.2145" fill="#F7D76A"/>
<path d="M342.642 185H0.15448C10.3153 159.774 35.0455 154.635 46.1405 155.218C51.7465 131.393 73.0023 128.356 82.9295 129.816C100.448 93.0275 136.653 101.349 152.566 110.108C202.318 75.7718 236.071 112.152 246.728 134.634C285.269 120.97 306.875 146.459 312.86 160.912C337.036 159.16 342.788 176.241 342.642 185Z" fill="#88BFE8"/>
<path d="M342.642 185H0.15448C10.3153 176.668 44.6588 185 55.3369 166.548C60.4151 157.772 135.217 171.337 108.191 152.626C82.9068 135.122 128.548 114.52 154.871 133.663C212.369 175.478 234.998 132.759 253.002 158.14C268.403 179.851 290.5 160.818 312.86 177.044C322.621 184.127 342.788 182.107 342.642 185Z" fill="#DAEBF3"/>
<g filter="url(#filter0_d_226_1268)">
<path d="M159.358 221.936H501.846C491.685 196.709 466.954 191.57 455.859 192.154C450.254 168.328 428.998 165.292 419.071 166.752C401.552 129.963 365.347 138.284 349.434 147.044C299.682 112.707 265.929 149.088 255.272 171.57C216.731 157.905 195.125 183.395 189.14 197.848C164.964 196.096 159.212 213.176 159.358 221.936Z" fill="#88BFE8"/>
<path d="M159.358 221.935H501.846C491.685 213.604 457.341 221.935 446.663 203.483C441.585 194.708 366.783 208.272 393.809 189.562C419.093 172.057 373.452 151.456 347.129 170.598C289.631 212.413 267.002 169.694 248.998 195.075C233.597 216.786 211.5 197.754 189.14 213.98C179.379 221.063 159.212 219.042 159.358 221.935Z" fill="#DAEBF3"/>
</g>
<defs>
<filter id="filter0_d_226_1268" x="143.356" y="116.946" width="366.49" height="112.99" filterUnits="userSpaceOnUse" color-interpolation-filters="sRGB">
<feFlood flood-opacity="0" result="BackgroundImageFix"/>
<feColorMatrix in="SourceAlpha" type="matrix" values="0 0 0 0 0 0 0 0 0 0 0 0 0 0 0 0 0 0 127 0" result="hardAlpha"/>
<feOffset dx="-4" dy="-4"/>
<feGaussianBlur stdDeviation="6"/>
<feComposite in2="hardAlpha" operator="out"/>
<feColorMatrix type="matrix" values="0 0 0 0 0.381417 0 0 0 0 0.602133 0 0 0 0 0.766667 0 0 0 0.32 0"/>
<feBlend mode="normal" in2="BackgroundImageFix" result="effect1_dropShadow_226_1268"/>
<feBlend mode="normal" in="SourceGraphic" in2="effect1_dropShadow_226_1268" result="shape"/>
</filter>
</defs>
</svg>
