<svg width="380" height="301" viewBox="0 0 380 301" fill="none" xmlns="http://www.w3.org/2000/svg">
<rect x="285.272" y="0.217285" width="62.186" height="62.186" fill="#F7D76A"/>
<rect x="294.38" y="31.3102" width="31.093" height="31.093" transform="rotate(-45 294.38 31.3102)" fill="#F2FAFE"/>
<rect x="0.651855" y="62.4033" width="378.697" height="238.38" rx="28.7012" fill="url(#paint0_linear_601_1821)"/>
<g clip-path="url(#clip0_601_1821)">
<rect x="64.2729" y="124.43" width="37.3116" height="37.3116" transform="rotate(-180 64.2729 124.43)" fill="#213456"/>
<rect x="54.9453" y="115.102" width="18.6558" height="18.6558" transform="rotate(-180 54.9453 115.102)" fill="#DAEBF3"/>
<rect x="64.2729" y="105.774" width="18.6558" height="18.6558" transform="rotate(-180 64.2729 105.774)" fill="#DAEBF3"/>
<rect x="64.2729" y="87.1182" width="37.3116" height="37.3116" fill="#213456"/>
<path d="M64.2729 124.43L101.585 87.1182V124.43H64.2729Z" fill="#88BFE8"/>
</g>
<path fill-rule="evenodd" clip-rule="evenodd" d="M190.001 268.095C237.774 268.095 276.503 229.367 276.503 181.593C276.503 133.819 237.774 95.0907 190.001 95.0907C142.227 95.0907 103.498 133.819 103.498 181.593C103.498 229.367 142.227 268.095 190.001 268.095ZM190 224.844C213.887 224.844 233.252 205.48 233.252 181.593C233.252 157.706 213.887 138.342 190 138.342C166.113 138.342 146.749 157.706 146.749 181.593C146.749 205.48 166.113 224.844 190 224.844Z" fill="url(#paint1_linear_601_1821)"/>
<defs>
<linearGradient id="paint0_linear_601_1821" x1="190" y1="62.4033" x2="190" y2="300.783" gradientUnits="userSpaceOnUse">
<stop offset="0.253125" stop-color="#CFE4EE"/>
<stop offset="1" stop-color="white" stop-opacity="0"/>
</linearGradient>
<linearGradient id="paint1_linear_601_1821" x1="190.001" y1="95.0907" x2="190.001" y2="268.095" gradientUnits="userSpaceOnUse">
<stop stop-color="#88BFE8"/>
<stop offset="1" stop-color="#88BFE8" stop-opacity="0"/>
</linearGradient>
<clipPath id="clip0_601_1821">
<rect x="26.9614" y="87.1182" width="74.6231" height="37.3116" rx="6.37805" fill="white"/>
</clipPath>
</defs>
</svg>
