<svg width="78" height="234" viewBox="0 0 78 234" fill="none" xmlns="http://www.w3.org/2000/svg">
<rect y="-7.62939e-06" width="78" height="78" fill="#F7D76A"/>
<rect x="11.4228" y="39" width="39" height="39" transform="rotate(-45 11.4228 39)" fill="#F2FAFE"/>
<rect x="1.52588e-05" y="156" width="78" height="78" transform="rotate(-90 1.52588e-05 156)" fill="#213456"/>
<rect x="1.52588e-05" y="117" width="39" height="78" transform="rotate(-90 1.52588e-05 117)" fill="#88BFE8"/>
<mask id="mask0_209_1170" style="mask-type:alpha" maskUnits="userSpaceOnUse" x="0" y="78" width="78" height="78">
<rect x="1.52588e-05" y="156" width="78" height="78" transform="rotate(-90 1.52588e-05 156)" fill="#F2FAFE"/>
</mask>
<g mask="url(#mask0_209_1170)">
<circle cx="39" cy="156" r="39" transform="rotate(-90 39 156)" fill="#F2FAFE"/>
<circle cx="39" cy="78" r="39" transform="rotate(-90 39 78)" fill="#F7D76A"/>
</g>
<rect x="78" y="234" width="78" height="78" transform="rotate(-180 78 234)" fill="#213456"/>
<rect x="58.5" y="214.5" width="39" height="39" transform="rotate(-180 58.5 214.5)" fill="#F2FAFE"/>
<rect x="78" y="195" width="39" height="39" transform="rotate(-180 78 195)" fill="#F2FAFE"/>
</svg>
