<svg width="556" height="323" viewBox="0 0 556 323" fill="none" xmlns="http://www.w3.org/2000/svg">
<path d="M299.481 99.1829C312.344 93.2318 385.164 78.0849 419.966 71.2553C414.521 61.5833 401.111 41.2959 395.086 32.3612L261.683 74.9491C235.085 84.5877 179.419 105.426 169.533 111.669C157.176 119.474 136.767 152.849 134.06 156.391C131.353 159.934 137.282 167.005 143.836 179.856C149.079 190.136 153.018 191.619 154.332 191.075C155.297 194.413 161.773 196.78 164.891 197.546C167.406 202.25 170.663 202.338 171.977 201.795C180.207 197.866 174.826 184.522 171.107 178.341C172.343 177.007 171.774 166.149 171.336 160.886C175.459 160.94 198.558 129.188 206.787 130.753C215.015 132.317 212.156 153.771 202.215 164.933C192.273 176.095 189.467 193.543 201.838 193.705C211.735 193.835 225.866 169.736 231.695 157.67C248.931 140.654 286.617 105.134 299.481 99.1829Z" fill="url(#paint0_linear_9_1028)"/>
<path d="M299.481 99.1829C312.344 93.2318 385.164 78.0849 419.966 71.2553C414.521 61.5833 401.111 41.2959 395.086 32.3612L261.683 74.9491C235.085 84.5877 179.419 105.426 169.533 111.669C157.176 119.474 136.767 152.849 134.06 156.391C131.353 159.934 137.282 167.005 143.836 179.856C149.079 190.136 153.018 191.619 154.332 191.075C155.297 194.413 161.773 196.78 164.891 197.546C167.406 202.25 170.663 202.338 171.977 201.795C180.207 197.866 174.826 184.522 171.107 178.341C172.343 177.007 171.774 166.149 171.336 160.886C175.459 160.94 198.558 129.188 206.787 130.753C215.015 132.317 212.156 153.771 202.215 164.933C192.273 176.095 189.467 193.543 201.838 193.705C211.735 193.835 225.866 169.736 231.695 157.67C248.931 140.654 286.617 105.134 299.481 99.1829Z" fill="url(#paint1_linear_9_1028)"/>
<g filter="url(#filter0_d_9_1028)">
<g filter="url(#filter1_i_9_1028)">
<ellipse rx="54.8809" ry="49.4303" transform="matrix(-0.980828 -0.194875 -0.3599 0.932991 263.186 259.574)" fill="#FFEF86"/>
</g>
<g filter="url(#filter2_i_9_1028)">
<ellipse rx="47.1047" ry="43.9828" transform="matrix(-0.980828 -0.194875 -0.3599 0.932991 263.989 258.411)" fill="url(#paint2_linear_9_1028)"/>
</g>
</g>
<g filter="url(#filter3_f_9_1028)">
<g filter="url(#filter4_i_9_1028)">
<ellipse rx="27.8163" ry="27.6318" transform="matrix(-0.946567 0.322508 0.569218 0.822187 259.775 155.433)" fill="#FFEF86"/>
</g>
<g filter="url(#filter5_i_9_1028)">
<ellipse rx="23.875" ry="24.5867" transform="matrix(-0.946567 0.322508 0.569218 0.822187 259.517 154.773)" fill="url(#paint3_linear_9_1028)"/>
</g>
</g>
<g filter="url(#filter6_i_9_1028)">
<ellipse rx="43.8473" ry="38.2" transform="matrix(0.996376 -0.0850534 0.180833 0.983514 180.161 197.688)" fill="#FFEF86"/>
</g>
<g filter="url(#filter7_i_9_1028)">
<ellipse rx="37.6345" ry="33.9901" transform="matrix(0.996376 -0.0850534 0.180833 0.983514 179.71 196.71)" fill="url(#paint4_linear_9_1028)"/>
</g>
<path d="M299.481 99.1829C312.344 93.2318 385.164 78.0849 419.966 71.2553C414.521 61.5833 401.111 41.2959 395.086 32.3612L261.683 74.9491C235.085 84.5877 179.419 105.426 169.533 111.669C157.176 119.474 136.767 152.849 134.06 156.391C131.353 159.934 137.282 167.005 143.836 179.856C149.079 190.136 153.018 191.619 154.332 191.075C155.297 194.413 161.773 196.78 164.891 197.546C167.406 202.25 170.663 202.338 171.977 201.795C180.207 197.866 174.826 184.522 171.107 178.341C172.343 177.007 171.774 166.149 171.336 160.886C175.459 160.94 198.558 129.188 206.787 130.753C215.015 132.317 212.156 153.771 202.215 164.933L231.695 157.67C248.931 140.654 286.617 105.134 299.481 99.1829Z" fill="url(#paint5_linear_9_1028)"/>
<g filter="url(#filter8_d_9_1028)">
<path d="M21.0014 116.612H216.381C210.585 102.221 196.477 99.2889 190.147 99.622C186.949 86.0302 174.823 84.298 169.16 85.1309C159.166 64.1438 138.512 68.8909 129.435 73.8878C101.052 54.2999 81.7973 75.0538 75.7177 87.8793C53.7313 80.0841 41.4055 94.6251 37.991 102.87C24.1995 101.871 20.9181 111.615 21.0014 116.612Z" fill="#88BFE8"/>
<path d="M21.0015 116.612H216.381C210.585 111.859 190.993 116.612 184.901 106.085C182.004 101.079 139.331 108.817 154.749 98.1434C169.173 88.1574 143.136 76.4049 128.12 87.3253C95.3188 111.18 82.4096 86.8094 72.1385 101.289C63.3527 113.674 50.7468 102.817 37.9911 112.073C32.4227 116.114 20.9183 114.961 21.0015 116.612Z" fill="#DAEBF3"/>
</g>
<g filter="url(#filter9_d_9_1028)">
<path d="M361.471 208.153H516.702C512.096 196.719 500.887 194.39 495.859 194.655C493.318 183.856 483.684 182.48 479.184 183.141C471.244 166.467 454.834 170.239 447.622 174.209C425.072 158.646 409.774 175.135 404.944 185.325C387.475 179.132 377.682 190.685 374.969 197.235C364.012 196.441 361.405 204.183 361.471 208.153Z" fill="#88BFE8"/>
<path d="M361.471 208.153H516.702C512.096 204.377 496.53 208.153 491.69 199.79C489.389 195.812 455.485 201.96 467.734 193.48C479.195 185.546 458.508 176.208 446.577 184.885C420.517 203.837 410.26 184.475 402.1 195.979C395.119 205.819 385.104 197.193 374.969 204.547C370.545 207.758 361.405 206.842 361.471 208.153Z" fill="#DAEBF3"/>
</g>
<path d="M555.998 75.5821H265.111C273.741 54.1564 294.745 49.7915 304.168 50.2873C308.93 30.0515 326.983 27.4726 335.414 28.7126C350.294 -2.5336 381.044 4.53402 394.559 11.9736C436.816 -17.1895 465.483 13.7096 474.534 32.8045C507.269 21.1987 525.619 42.8479 530.703 55.1232C551.236 53.6353 556.122 68.1425 555.998 75.5821Z" fill="#88BFE8"/>
<path d="M555.998 75.582H265.111C273.741 68.5055 302.91 75.582 311.979 59.9099C316.292 52.4566 379.825 63.9773 356.87 48.0858C335.395 33.2184 374.16 15.7209 396.517 31.9795C445.352 67.4944 464.572 31.2114 479.863 52.7687C492.944 71.2087 511.712 55.0436 530.703 68.8249C538.994 74.8409 556.122 73.1248 555.998 75.582Z" fill="#DAEBF3"/>
<defs>
<filter id="filter0_d_9_1028" x="198.663" y="212.222" width="129.046" height="110.335" filterUnits="userSpaceOnUse" color-interpolation-filters="sRGB">
<feFlood flood-opacity="0" result="BackgroundImageFix"/>
<feColorMatrix in="SourceAlpha" type="matrix" values="0 0 0 0 0 0 0 0 0 0 0 0 0 0 0 0 0 0 127 0" result="hardAlpha"/>
<feOffset dy="7.81525"/>
<feGaussianBlur stdDeviation="3.90762"/>
<feComposite in2="hardAlpha" operator="out"/>
<feColorMatrix type="matrix" values="0 0 0 0 0 0 0 0 0 0 0 0 0 0 0 0 0 0 0.25 0"/>
<feBlend mode="normal" in2="BackgroundImageFix" result="effect1_dropShadow_9_1028"/>
<feBlend mode="normal" in="SourceGraphic" in2="effect1_dropShadow_9_1028" result="shape"/>
</filter>
<filter id="filter1_i_9_1028" x="206.479" y="202.966" width="113.415" height="103.961" filterUnits="userSpaceOnUse" color-interpolation-filters="sRGB">
<feFlood flood-opacity="0" result="BackgroundImageFix"/>
<feBlend mode="normal" in="SourceGraphic" in2="BackgroundImageFix" result="shape"/>
<feColorMatrix in="SourceAlpha" type="matrix" values="0 0 0 0 0 0 0 0 0 0 0 0 0 0 0 0 0 0 127 0" result="hardAlpha"/>
<feOffset dy="-9.25582"/>
<feGaussianBlur stdDeviation="9.25582"/>
<feComposite in2="hardAlpha" operator="arithmetic" k2="-1" k3="1"/>
<feColorMatrix type="matrix" values="0 0 0 0 0.596078 0 0 0 0 0.478431 0 0 0 0 0.203922 0 0 0 1 0"/>
<feBlend mode="normal" in2="shape" result="effect1_innerShadow_9_1028"/>
</filter>
<filter id="filter2_i_9_1028" x="215.138" y="216.352" width="97.7028" height="93.3734" filterUnits="userSpaceOnUse" color-interpolation-filters="sRGB">
<feFlood flood-opacity="0" result="BackgroundImageFix"/>
<feBlend mode="normal" in="SourceGraphic" in2="BackgroundImageFix" result="shape"/>
<feColorMatrix in="SourceAlpha" type="matrix" values="0 0 0 0 0 0 0 0 0 0 0 0 0 0 0 0 0 0 127 0" result="hardAlpha"/>
<feOffset dy="18.5116"/>
<feGaussianBlur stdDeviation="4.62791"/>
<feComposite in2="hardAlpha" operator="arithmetic" k2="-1" k3="1"/>
<feColorMatrix type="matrix" values="0 0 0 0 0.576471 0 0 0 0 0.360784 0 0 0 0 0.0588235 0 0 0 0.4 0"/>
<feBlend mode="normal" in2="shape" result="effect1_innerShadow_9_1028"/>
</filter>
<filter id="filter3_f_9_1028" x="221.285" y="123.186" width="76.9801" height="64.4948" filterUnits="userSpaceOnUse" color-interpolation-filters="sRGB">
<feFlood flood-opacity="0" result="BackgroundImageFix"/>
<feBlend mode="normal" in="SourceGraphic" in2="BackgroundImageFix" result="shape"/>
<feGaussianBlur stdDeviation="3.90762" result="effect1_foregroundBlur_9_1028"/>
</filter>
<filter id="filter4_i_9_1028" x="229.1" y="126.133" width="61.3496" height="53.7322" filterUnits="userSpaceOnUse" color-interpolation-filters="sRGB">
<feFlood flood-opacity="0" result="BackgroundImageFix"/>
<feBlend mode="normal" in="SourceGraphic" in2="BackgroundImageFix" result="shape"/>
<feColorMatrix in="SourceAlpha" type="matrix" values="0 0 0 0 0 0 0 0 0 0 0 0 0 0 0 0 0 0 127 0" result="hardAlpha"/>
<feOffset dy="-4.8679"/>
<feGaussianBlur stdDeviation="4.8679"/>
<feComposite in2="hardAlpha" operator="arithmetic" k2="-1" k3="1"/>
<feColorMatrix type="matrix" values="0 0 0 0 0.596078 0 0 0 0 0.478431 0 0 0 0 0.203922 0 0 0 1 0"/>
<feBlend mode="normal" in2="shape" result="effect1_innerShadow_9_1028"/>
</filter>
<filter id="filter5_i_9_1028" x="232.932" y="133.136" width="53.1709" height="48.1428" filterUnits="userSpaceOnUse" color-interpolation-filters="sRGB">
<feFlood flood-opacity="0" result="BackgroundImageFix"/>
<feBlend mode="normal" in="SourceGraphic" in2="BackgroundImageFix" result="shape"/>
<feColorMatrix in="SourceAlpha" type="matrix" values="0 0 0 0 0 0 0 0 0 0 0 0 0 0 0 0 0 0 127 0" result="hardAlpha"/>
<feOffset dy="9.7358"/>
<feGaussianBlur stdDeviation="2.43395"/>
<feComposite in2="hardAlpha" operator="arithmetic" k2="-1" k3="1"/>
<feColorMatrix type="matrix" values="0 0 0 0 0.576471 0 0 0 0 0.360784 0 0 0 0 0.0588235 0 0 0 0.4 0"/>
<feBlend mode="normal" in2="shape" result="effect1_innerShadow_9_1028"/>
</filter>
<filter id="filter6_i_9_1028" x="135.923" y="152.621" width="88.4752" height="82.8253" filterUnits="userSpaceOnUse" color-interpolation-filters="sRGB">
<feFlood flood-opacity="0" result="BackgroundImageFix"/>
<feBlend mode="normal" in="SourceGraphic" in2="BackgroundImageFix" result="shape"/>
<feColorMatrix in="SourceAlpha" type="matrix" values="0 0 0 0 0 0 0 0 0 0 0 0 0 0 0 0 0 0 127 0" result="hardAlpha"/>
<feOffset dy="-7.3101"/>
<feGaussianBlur stdDeviation="7.3101"/>
<feComposite in2="hardAlpha" operator="arithmetic" k2="-1" k3="1"/>
<feColorMatrix type="matrix" values="0 0 0 0 0.596078 0 0 0 0 0.478431 0 0 0 0 0.203922 0 0 0 1 0"/>
<feBlend mode="normal" in2="shape" result="effect1_innerShadow_9_1028"/>
</filter>
<filter id="filter7_i_9_1028" x="141.705" y="163.125" width="76.0087" height="74.4801" filterUnits="userSpaceOnUse" color-interpolation-filters="sRGB">
<feFlood flood-opacity="0" result="BackgroundImageFix"/>
<feBlend mode="normal" in="SourceGraphic" in2="BackgroundImageFix" result="shape"/>
<feColorMatrix in="SourceAlpha" type="matrix" values="0 0 0 0 0 0 0 0 0 0 0 0 0 0 0 0 0 0 127 0" result="hardAlpha"/>
<feOffset dy="14.6202"/>
<feGaussianBlur stdDeviation="3.65505"/>
<feComposite in2="hardAlpha" operator="arithmetic" k2="-1" k3="1"/>
<feColorMatrix type="matrix" values="0 0 0 0 0.576471 0 0 0 0 0.360784 0 0 0 0 0.0588235 0 0 0 0.4 0"/>
<feBlend mode="normal" in2="shape" result="effect1_innerShadow_9_1028"/>
</filter>
<filter id="filter8_d_9_1028" x="0.185448" y="45.0311" width="226.603" height="81.9878" filterUnits="userSpaceOnUse" color-interpolation-filters="sRGB">
<feFlood flood-opacity="0" result="BackgroundImageFix"/>
<feColorMatrix in="SourceAlpha" type="matrix" values="0 0 0 0 0 0 0 0 0 0 0 0 0 0 0 0 0 0 127 0" result="hardAlpha"/>
<feOffset dx="-5.20361" dy="-5.20361"/>
<feGaussianBlur stdDeviation="7.80541"/>
<feComposite in2="hardAlpha" operator="out"/>
<feColorMatrix type="matrix" values="0 0 0 0 0.381417 0 0 0 0 0.602133 0 0 0 0 0.766667 0 0 0 0.32 0"/>
<feBlend mode="normal" in2="BackgroundImageFix" result="effect1_dropShadow_9_1028"/>
<feBlend mode="normal" in="SourceGraphic" in2="effect1_dropShadow_9_1028" result="shape"/>
</filter>
<filter id="filter9_d_9_1028" x="344.933" y="151.282" width="180.037" height="65.1398" filterUnits="userSpaceOnUse" color-interpolation-filters="sRGB">
<feFlood flood-opacity="0" result="BackgroundImageFix"/>
<feColorMatrix in="SourceAlpha" type="matrix" values="0 0 0 0 0 0 0 0 0 0 0 0 0 0 0 0 0 0 127 0" result="hardAlpha"/>
<feOffset dx="-4.1343" dy="-4.1343"/>
<feGaussianBlur stdDeviation="6.20145"/>
<feComposite in2="hardAlpha" operator="out"/>
<feColorMatrix type="matrix" values="0 0 0 0 0.381417 0 0 0 0 0.602133 0 0 0 0 0.766667 0 0 0 0.32 0"/>
<feBlend mode="normal" in2="BackgroundImageFix" result="effect1_dropShadow_9_1028"/>
<feBlend mode="normal" in="SourceGraphic" in2="effect1_dropShadow_9_1028" result="shape"/>
</filter>
<linearGradient id="paint0_linear_9_1028" x1="191.309" y1="29.6931" x2="259.33" y2="218.556" gradientUnits="userSpaceOnUse">
<stop stop-color="#EFC7B2"/>
<stop offset="1" stop-color="#A57966"/>
</linearGradient>
<linearGradient id="paint1_linear_9_1028" x1="191.309" y1="29.6931" x2="259.33" y2="218.556" gradientUnits="userSpaceOnUse">
<stop stop-color="#EFC7B2"/>
<stop offset="1" stop-color="#B99585"/>
</linearGradient>
<linearGradient id="paint2_linear_9_1028" x1="5.37553" y1="18.5708" x2="69.307" y2="92.7903" gradientUnits="userSpaceOnUse">
<stop stop-color="#F9E99B"/>
<stop offset="0.398958" stop-color="white"/>
<stop offset="1" stop-color="#F1DA69"/>
</linearGradient>
<linearGradient id="paint3_linear_9_1028" x1="2.72458" y1="10.3812" x2="38.8139" y2="48.3689" gradientUnits="userSpaceOnUse">
<stop stop-color="#F9E99B"/>
<stop offset="0.398958" stop-color="white"/>
<stop offset="1" stop-color="#F1DA69"/>
</linearGradient>
<linearGradient id="paint4_linear_9_1028" x1="4.2948" y1="14.3516" x2="53.4319" y2="73.3262" gradientUnits="userSpaceOnUse">
<stop stop-color="#F9E99B"/>
<stop offset="0.398958" stop-color="white"/>
<stop offset="1" stop-color="#F1DA69"/>
</linearGradient>
<linearGradient id="paint5_linear_9_1028" x1="191.309" y1="29.6931" x2="259.33" y2="218.556" gradientUnits="userSpaceOnUse">
<stop stop-color="#EFC7B2"/>
<stop offset="1" stop-color="#B99585"/>
</linearGradient>
</defs>
</svg>
