<svg width="598" height="467" viewBox="0 0 598 467" fill="none" xmlns="http://www.w3.org/2000/svg">
<path d="M317.285 116.21C302.726 106.348 220.029 80.3997 180.5 68.6585C186.844 53.1856 202.418 20.7725 209.412 6.5L360.688 77.9517C390.832 94.0469 453.91 128.805 465.075 139.076C479.03 151.915 501.772 206.134 504.802 211.901C507.832 217.668 500.975 228.939 493.32 249.51C487.197 265.968 482.689 268.275 481.201 267.371C480.052 272.729 472.642 276.408 469.081 277.577C466.147 285.104 462.436 285.179 460.948 284.275C451.635 277.769 457.961 256.377 462.288 246.495C460.901 244.318 461.71 226.83 462.288 218.359C457.592 218.359 431.761 166.697 422.368 169.046C412.975 171.394 415.911 206.03 427.065 224.229C438.219 242.428 441.154 270.607 427.065 270.607C415.793 270.607 400.06 231.47 393.603 211.901C374.23 184.114 331.844 126.073 317.285 116.21Z" fill="url(#paint0_linear_86_513)"/>
<path d="M317.285 116.21C302.726 106.348 220.029 80.3997 180.5 68.6585C186.844 53.1856 202.418 20.7725 209.412 6.5L360.688 77.9517C390.832 94.0469 453.91 128.805 465.075 139.076C479.03 151.915 501.772 206.134 504.802 211.901C507.832 217.668 500.975 228.939 493.32 249.51C487.197 265.968 482.689 268.275 481.201 267.371C480.052 272.729 472.642 276.408 469.081 277.577C466.147 285.104 462.436 285.179 460.948 284.275C451.635 277.769 457.961 256.377 462.288 246.495C460.901 244.318 461.71 226.83 462.288 218.359C457.592 218.359 431.761 166.697 422.368 169.046C412.975 171.394 415.911 206.03 427.065 224.229C438.219 242.428 441.154 270.607 427.065 270.607C415.793 270.607 400.06 231.47 393.603 211.901C374.23 184.114 331.844 126.073 317.285 116.21Z" fill="url(#paint1_linear_86_513)"/>
<g filter="url(#filter0_d_86_513)">
<g filter="url(#filter1_i_86_513)">
<ellipse cx="356.223" cy="375.47" rx="63.5303" ry="77.2223" transform="rotate(-14.6806 356.223 375.47)" fill="#FFEF86"/>
</g>
<g filter="url(#filter2_i_86_513)">
<ellipse cx="355.326" cy="373.579" rx="54.5286" ry="68.712" transform="rotate(-14.6806 355.326 373.579)" fill="url(#paint2_linear_86_513)"/>
</g>
</g>
<g filter="url(#filter3_f_86_513)">
<g filter="url(#filter4_i_86_513)">
<ellipse cx="361.66" cy="207.704" rx="33.4124" ry="40.6134" transform="rotate(26.7016 361.66 207.704)" fill="#FFEF86"/>
</g>
<g filter="url(#filter5_i_86_513)">
<ellipse cx="361.964" cy="206.646" rx="28.6781" ry="36.1376" transform="rotate(26.7016 361.964 206.646)" fill="url(#paint3_linear_86_513)"/>
</g>
</g>
<g filter="url(#filter6_i_86_513)">
<ellipse rx="50.1752" ry="60.989" transform="matrix(-0.99041 -0.138162 -0.138162 0.99041 451.69 277.484)" fill="#FFEF86"/>
</g>
<g filter="url(#filter7_i_86_513)">
<ellipse rx="43.0658" ry="54.2676" transform="matrix(-0.99041 -0.138162 -0.138162 0.99041 452.219 275.917)" fill="url(#paint4_linear_86_513)"/>
</g>
<path d="M317.285 116.21C302.726 106.348 220.029 80.3997 180.5 68.6585C186.844 53.1856 202.418 20.7725 209.412 6.5L360.688 77.9517C390.832 94.0469 453.91 128.805 465.075 139.076C479.03 151.915 501.772 206.134 504.802 211.901C507.832 217.668 500.975 228.939 493.32 249.51C487.197 265.968 482.689 268.275 481.201 267.371C480.052 272.729 472.642 276.408 469.081 277.577C466.147 285.104 462.436 285.179 460.948 284.275C451.635 277.769 457.961 256.377 462.288 246.495C460.901 244.318 461.71 226.83 462.288 218.359C457.592 218.359 431.761 166.697 422.368 169.046C412.975 171.394 415.911 206.03 427.065 224.229L393.603 211.901C374.23 184.114 331.844 126.073 317.285 116.21Z" fill="url(#paint5_linear_86_513)"/>
<g filter="url(#filter8_d_86_513)">
<path d="M115.002 288.252H343.039C336.274 271.455 319.808 268.033 312.42 268.422C308.688 252.559 294.535 250.537 287.925 251.509C276.261 227.014 252.155 232.554 241.56 238.387C208.433 215.524 185.96 239.747 178.864 254.717C153.202 245.619 138.816 262.59 134.831 272.213C118.734 271.047 114.904 282.42 115.002 288.252Z" fill="#88BFE8"/>
<path d="M115.002 288.252H343.039C336.274 282.704 313.407 288.252 306.297 275.966C302.916 270.123 253.11 279.154 271.105 266.696C287.94 255.041 257.551 241.324 240.025 254.07C201.741 281.911 186.674 253.468 174.686 270.367C164.432 284.823 149.719 272.151 134.831 282.954C128.332 287.671 114.904 286.325 115.002 288.252Z" fill="#DAEBF3"/>
</g>
<path d="M342.942 89.4896H0.455078C10.6159 64.2631 35.3461 59.124 46.4411 59.7078C52.0471 35.8823 73.3029 32.8459 83.2301 34.3059C100.749 -2.48304 136.954 5.83831 152.866 14.5976C202.619 -19.7387 236.371 16.6415 247.028 39.1236C285.569 25.4592 307.175 50.9487 313.161 65.4015C337.336 63.6496 343.088 80.7303 342.942 89.4896Z" fill="#88BFE8"/>
<path d="M342.942 89.4894H0.455078C10.6159 81.1577 44.9594 89.4894 55.6375 71.0373C60.7157 62.2619 135.518 75.8262 108.492 57.1158C83.2074 39.611 128.849 19.0097 155.171 38.1524C212.669 79.9672 235.298 37.248 253.303 62.6293C268.704 84.3404 290.801 65.3077 313.161 81.5337C322.922 88.6169 343.088 86.5964 342.942 89.4894Z" fill="#DAEBF3"/>
<g filter="url(#filter9_d_86_513)">
<path d="M363.793 146.983H591.83C585.065 130.186 568.599 126.764 561.211 127.153C557.479 111.289 543.326 109.268 536.716 110.24C525.052 85.7448 500.946 91.2854 490.351 97.1175C457.224 74.2555 434.751 98.4784 427.655 113.448C401.993 104.349 387.607 121.321 383.622 130.944C367.525 129.778 363.695 141.15 363.793 146.983Z" fill="#88BFE8"/>
<path d="M363.793 146.983H591.83C585.065 141.435 562.198 146.983 555.088 134.697C551.707 128.854 501.901 137.885 519.896 125.427C536.731 113.772 506.342 100.055 488.816 112.801C450.532 140.642 435.465 112.199 423.477 129.098C413.223 143.554 398.51 130.882 383.622 141.685C377.123 146.402 363.695 145.056 363.793 146.983Z" fill="#DAEBF3"/>
</g>
<defs>
<filter id="filter0_d_86_513" x="287.709" y="299.038" width="137.029" height="160.865" filterUnits="userSpaceOnUse" color-interpolation-filters="sRGB">
<feFlood flood-opacity="0" result="BackgroundImageFix"/>
<feColorMatrix in="SourceAlpha" type="matrix" values="0 0 0 0 0 0 0 0 0 0 0 0 0 0 0 0 0 0 127 0" result="hardAlpha"/>
<feOffset dy="4"/>
<feGaussianBlur stdDeviation="2"/>
<feComposite in2="hardAlpha" operator="out"/>
<feColorMatrix type="matrix" values="0 0 0 0 0 0 0 0 0 0 0 0 0 0 0 0 0 0 0.25 0"/>
<feBlend mode="normal" in2="BackgroundImageFix" result="effect1_dropShadow_86_513"/>
<feBlend mode="normal" in="SourceGraphic" in2="effect1_dropShadow_86_513" result="shape"/>
</filter>
<filter id="filter1_i_86_513" x="291.709" y="294.3" width="129.029" height="157.602" filterUnits="userSpaceOnUse" color-interpolation-filters="sRGB">
<feFlood flood-opacity="0" result="BackgroundImageFix"/>
<feBlend mode="normal" in="SourceGraphic" in2="BackgroundImageFix" result="shape"/>
<feColorMatrix in="SourceAlpha" type="matrix" values="0 0 0 0 0 0 0 0 0 0 0 0 0 0 0 0 0 0 127 0" result="hardAlpha"/>
<feOffset dy="-4.73731"/>
<feGaussianBlur stdDeviation="4.73731"/>
<feComposite in2="hardAlpha" operator="arithmetic" k2="-1" k3="1"/>
<feColorMatrix type="matrix" values="0 0 0 0 0.596078 0 0 0 0 0.478431 0 0 0 0 0.203922 0 0 0 1 0"/>
<feBlend mode="normal" in2="shape" result="effect1_innerShadow_86_513"/>
</filter>
<filter id="filter2_i_86_513" x="299.763" y="305.675" width="111.127" height="140.545" filterUnits="userSpaceOnUse" color-interpolation-filters="sRGB">
<feFlood flood-opacity="0" result="BackgroundImageFix"/>
<feBlend mode="normal" in="SourceGraphic" in2="BackgroundImageFix" result="shape"/>
<feColorMatrix in="SourceAlpha" type="matrix" values="0 0 0 0 0 0 0 0 0 0 0 0 0 0 0 0 0 0 127 0" result="hardAlpha"/>
<feOffset dy="9.47463"/>
<feGaussianBlur stdDeviation="2.36866"/>
<feComposite in2="hardAlpha" operator="arithmetic" k2="-1" k3="1"/>
<feColorMatrix type="matrix" values="0 0 0 0 0.576471 0 0 0 0 0.360784 0 0 0 0 0.0588235 0 0 0 0.4 0"/>
<feBlend mode="normal" in2="shape" result="effect1_innerShadow_86_513"/>
</filter>
<filter id="filter3_f_86_513" x="322.669" y="164.428" width="77.9819" height="86.5525" filterUnits="userSpaceOnUse" color-interpolation-filters="sRGB">
<feFlood flood-opacity="0" result="BackgroundImageFix"/>
<feBlend mode="normal" in="SourceGraphic" in2="BackgroundImageFix" result="shape"/>
<feGaussianBlur stdDeviation="2" result="effect1_foregroundBlur_86_513"/>
</filter>
<filter id="filter4_i_86_513" x="326.669" y="165.936" width="69.9819" height="81.044" filterUnits="userSpaceOnUse" color-interpolation-filters="sRGB">
<feFlood flood-opacity="0" result="BackgroundImageFix"/>
<feBlend mode="normal" in="SourceGraphic" in2="BackgroundImageFix" result="shape"/>
<feColorMatrix in="SourceAlpha" type="matrix" values="0 0 0 0 0 0 0 0 0 0 0 0 0 0 0 0 0 0 127 0" result="hardAlpha"/>
<feOffset dy="-2.49149"/>
<feGaussianBlur stdDeviation="2.49149"/>
<feComposite in2="hardAlpha" operator="arithmetic" k2="-1" k3="1"/>
<feColorMatrix type="matrix" values="0 0 0 0 0.596078 0 0 0 0 0.478431 0 0 0 0 0.203922 0 0 0 1 0"/>
<feBlend mode="normal" in2="shape" result="effect1_innerShadow_86_513"/>
</filter>
<filter id="filter5_i_86_513" x="331.628" y="171.876" width="60.6724" height="72.0313" filterUnits="userSpaceOnUse" color-interpolation-filters="sRGB">
<feFlood flood-opacity="0" result="BackgroundImageFix"/>
<feBlend mode="normal" in="SourceGraphic" in2="BackgroundImageFix" result="shape"/>
<feColorMatrix in="SourceAlpha" type="matrix" values="0 0 0 0 0 0 0 0 0 0 0 0 0 0 0 0 0 0 127 0" result="hardAlpha"/>
<feOffset dy="4.98297"/>
<feGaussianBlur stdDeviation="1.24574"/>
<feComposite in2="hardAlpha" operator="arithmetic" k2="-1" k3="1"/>
<feColorMatrix type="matrix" values="0 0 0 0 0.576471 0 0 0 0 0.360784 0 0 0 0 0.0588235 0 0 0 0.4 0"/>
<feBlend mode="normal" in2="shape" result="effect1_innerShadow_86_513"/>
</filter>
<filter id="filter6_i_86_513" x="401.279" y="212.937" width="100.823" height="125.354" filterUnits="userSpaceOnUse" color-interpolation-filters="sRGB">
<feFlood flood-opacity="0" result="BackgroundImageFix"/>
<feBlend mode="normal" in="SourceGraphic" in2="BackgroundImageFix" result="shape"/>
<feColorMatrix in="SourceAlpha" type="matrix" values="0 0 0 0 0 0 0 0 0 0 0 0 0 0 0 0 0 0 127 0" result="hardAlpha"/>
<feOffset dy="-3.74146"/>
<feGaussianBlur stdDeviation="3.74146"/>
<feComposite in2="hardAlpha" operator="arithmetic" k2="-1" k3="1"/>
<feColorMatrix type="matrix" values="0 0 0 0 0.596078 0 0 0 0 0.478431 0 0 0 0 0.203922 0 0 0 1 0"/>
<feBlend mode="normal" in2="shape" result="effect1_innerShadow_86_513"/>
</filter>
<filter id="filter7_i_86_513" x="408.905" y="221.837" width="86.6279" height="111.902" filterUnits="userSpaceOnUse" color-interpolation-filters="sRGB">
<feFlood flood-opacity="0" result="BackgroundImageFix"/>
<feBlend mode="normal" in="SourceGraphic" in2="BackgroundImageFix" result="shape"/>
<feColorMatrix in="SourceAlpha" type="matrix" values="0 0 0 0 0 0 0 0 0 0 0 0 0 0 0 0 0 0 127 0" result="hardAlpha"/>
<feOffset dy="7.48291"/>
<feGaussianBlur stdDeviation="1.87073"/>
<feComposite in2="hardAlpha" operator="arithmetic" k2="-1" k3="1"/>
<feColorMatrix type="matrix" values="0 0 0 0 0.576471 0 0 0 0 0.360784 0 0 0 0 0.0588235 0 0 0 0.4 0"/>
<feBlend mode="normal" in2="shape" result="effect1_innerShadow_86_513"/>
</filter>
<filter id="filter8_d_86_513" x="104.347" y="218.347" width="244.019" height="75.2316" filterUnits="userSpaceOnUse" color-interpolation-filters="sRGB">
<feFlood flood-opacity="0" result="BackgroundImageFix"/>
<feColorMatrix in="SourceAlpha" type="matrix" values="0 0 0 0 0 0 0 0 0 0 0 0 0 0 0 0 0 0 127 0" result="hardAlpha"/>
<feOffset dx="-2.66331" dy="-2.66331"/>
<feGaussianBlur stdDeviation="3.99496"/>
<feComposite in2="hardAlpha" operator="out"/>
<feColorMatrix type="matrix" values="0 0 0 0 0.381417 0 0 0 0 0.602133 0 0 0 0 0.766667 0 0 0 0.32 0"/>
<feBlend mode="normal" in2="BackgroundImageFix" result="effect1_dropShadow_86_513"/>
<feBlend mode="normal" in="SourceGraphic" in2="effect1_dropShadow_86_513" result="shape"/>
</filter>
<filter id="filter9_d_86_513" x="353.138" y="77.0777" width="244.019" height="75.2316" filterUnits="userSpaceOnUse" color-interpolation-filters="sRGB">
<feFlood flood-opacity="0" result="BackgroundImageFix"/>
<feColorMatrix in="SourceAlpha" type="matrix" values="0 0 0 0 0 0 0 0 0 0 0 0 0 0 0 0 0 0 127 0" result="hardAlpha"/>
<feOffset dx="-2.66331" dy="-2.66331"/>
<feGaussianBlur stdDeviation="3.99496"/>
<feComposite in2="hardAlpha" operator="out"/>
<feColorMatrix type="matrix" values="0 0 0 0 0.381417 0 0 0 0 0.602133 0 0 0 0 0.766667 0 0 0 0.32 0"/>
<feBlend mode="normal" in2="BackgroundImageFix" result="effect1_dropShadow_86_513"/>
<feBlend mode="normal" in="SourceGraphic" in2="effect1_dropShadow_86_513" result="shape"/>
</filter>
<linearGradient id="paint0_linear_86_513" x1="441.5" y1="6.49999" x2="298.405" y2="276.102" gradientUnits="userSpaceOnUse">
<stop stop-color="#EFC7B2"/>
<stop offset="1" stop-color="#A57966"/>
</linearGradient>
<linearGradient id="paint1_linear_86_513" x1="441.5" y1="6.49999" x2="298.405" y2="276.102" gradientUnits="userSpaceOnUse">
<stop stop-color="#EFC7B2"/>
<stop offset="1" stop-color="#B99585"/>
</linearGradient>
<linearGradient id="paint2_linear_86_513" x1="307.02" y1="333.879" x2="406.877" y2="419.778" gradientUnits="userSpaceOnUse">
<stop stop-color="#F9E99B"/>
<stop offset="0.398958" stop-color="white"/>
<stop offset="1" stop-color="#F1DA69"/>
</linearGradient>
<linearGradient id="paint3_linear_86_513" x1="336.559" y1="185.766" x2="389.076" y2="230.943" gradientUnits="userSpaceOnUse">
<stop stop-color="#F9E99B"/>
<stop offset="0.398958" stop-color="white"/>
<stop offset="1" stop-color="#F1DA69"/>
</linearGradient>
<linearGradient id="paint4_linear_86_513" x1="4.91461" y1="22.9133" x2="83.78" y2="90.7555" gradientUnits="userSpaceOnUse">
<stop stop-color="#F9E99B"/>
<stop offset="0.398958" stop-color="white"/>
<stop offset="1" stop-color="#F1DA69"/>
</linearGradient>
<linearGradient id="paint5_linear_86_513" x1="441.5" y1="6.49999" x2="298.405" y2="276.102" gradientUnits="userSpaceOnUse">
<stop stop-color="#EFC7B2"/>
<stop offset="1" stop-color="#B99585"/>
</linearGradient>
</defs>
</svg>
