<svg width="390" height="78" viewBox="0 0 390 78" fill="none" xmlns="http://www.w3.org/2000/svg">
<rect x="78" y="78" width="78" height="78" transform="rotate(-180 78 78)" fill="#213456"/>
<rect x="39" y="78" width="39" height="78" transform="rotate(-180 39 78)" fill="#88BFE8"/>
<mask id="mask0_424_826" style="mask-type:alpha" maskUnits="userSpaceOnUse" x="0" y="0" width="78" height="78">
<rect x="78" y="78" width="78" height="78" transform="rotate(-180 78 78)" fill="#F2FAFE"/>
</mask>
<g mask="url(#mask0_424_826)">
<circle cx="78.0003" cy="39" r="39" transform="rotate(-180 78.0003 39)" fill="#F2FAFE"/>
<circle cx="7.62939e-06" cy="39" r="39" transform="rotate(-180 7.62939e-06 39)" fill="#F7D76A"/>
</g>
<rect x="156" width="78" height="78" transform="rotate(90 156 0)" fill="#213456"/>
<rect x="136.5" y="19.4998" width="39" height="39" transform="rotate(90 136.5 19.4998)" fill="#DAEBF3"/>
<rect x="117" width="39" height="39" transform="rotate(90 117 0)" fill="#DAEBF3"/>
<rect x="156" y="78" width="78" height="78" transform="rotate(-90 156 78)" fill="#213456"/>
<path d="M234 78L156 0H234V78Z" fill="#88BFE8"/>
<rect x="234" y="78" width="78" height="78" transform="rotate(-90 234 78)" fill="#F7D76A"/>
<rect x="273" y="66.577" width="39" height="39" transform="rotate(-135 273 66.577)" fill="#F2FAFE"/>
<rect x="312" y="78" width="78" height="78" transform="rotate(-90 312 78)" fill="#DAEBF3"/>
<circle cx="351" cy="39" r="39" transform="rotate(-90 351 39)" fill="#88BFE8"/>
<circle cx="351" cy="38.9999" r="19.5" transform="rotate(-90 351 38.9999)" fill="#DAEBF3"/>
</svg>
