<svg width="270" height="256" viewBox="0 0 270 256" fill="none" xmlns="http://www.w3.org/2000/svg">
<path d="M92.3953 218.687C86.2481 221.289 80.5868 225.666 77.8269 231.743C75.067 237.821 75.8047 245.708 80.6581 250.291C83.9142 253.366 88.4998 254.627 92.9597 255.032C100.115 255.683 107.59 254.311 113.58 250.344C119.571 246.377 123.881 239.645 124.093 232.463C124.292 225.748 120.242 218.235 114.053 215.236C108.223 212.411 97.8731 216.369 92.3953 218.687Z" fill="#DB4333"/>
<path d="M90.4397 230.109C79.2236 243.535 102.004 247.816 108.779 235.178C109.386 234.046 109.781 232.813 110.016 231.551C112.601 217.669 96.4341 223.175 90.4397 230.109Z" fill="#A62D21"/>
<path d="M209.683 4.72565C221.228 10.9233 224.636 26.34 216.993 36.9909C205.788 52.8735 179.209 55.2289 164.657 42.7673C151.611 30.6506 155.34 16.6768 169.358 8.37767C170.148 7.9102 170.924 7.41946 171.69 6.91379C182.752 -0.396832 198.068 -2.47151 209.683 4.72565Z" fill="#DAEBF3"/>
<path d="M195.732 14.1562C199.283 15.1101 202.56 18.4961 202.103 22.3022C200.66 29.9657 187.106 33.6698 180.33 32.3404C169.687 29.8946 170.515 18.8448 180.106 15.477C185.02 13.6613 190.608 12.7652 195.732 14.1562Z" fill="#AFCBD8"/>
<path d="M148.627 105.123C142.337 109.057 136.891 114.854 134.929 122.009C132.966 129.163 135.16 137.69 141.29 141.868C145.403 144.671 150.657 145.251 155.623 144.913C163.591 144.371 171.553 141.554 177.432 136.149C183.31 130.744 186.859 122.6 185.832 114.68C184.872 107.277 179.109 99.7407 171.79 97.5357C164.896 95.4586 154.232 101.618 148.627 105.123Z" fill="#DB4333"/>
<path d="M148.485 118.002C138.065 135.486 166.768 135.436 170.092 118.133C171.973 99.7555 154.059 108.996 148.485 118.002Z" fill="#A62D21"/>
<path d="M108.337 56.5377C103.258 54.6901 97.4868 54.1634 92.4984 56.2452C87.51 58.327 83.5976 63.4107 83.9481 68.8047C84.1834 72.4235 86.2069 75.7003 88.6279 78.4002C92.5123 82.7321 97.7007 86.0409 103.441 86.9924C109.181 87.9439 115.449 86.3288 119.536 82.1873C123.357 78.3158 125.099 71.6265 123.083 66.4352C121.183 61.5449 112.864 58.184 108.337 56.5377Z" fill="#DB4333"/>
<path d="M100.879 62.2321C86.1666 64.0907 99.0676 80.5492 110.494 74.698C121.89 67.5357 108.55 61.3942 100.879 62.2321Z" fill="#A62D21"/>
<path d="M201.167 191.679C214.069 196.005 228.472 195.369 241.08 190.341C252.892 185.631 264.912 177.687 263.128 163.24C262.248 156.111 257.648 149.545 251.247 146.284C242.368 141.76 231.694 143.697 222.01 146.049C215.62 147.601 209.21 149.308 203.322 152.237C193.538 157.105 181.49 168.467 186.724 180.551C189.213 186.299 195.228 189.688 201.167 191.679Z" fill="#DB4333"/>
<path d="M215.179 161.373C212.248 162.698 209.251 164.838 208.737 168.013C208.398 170.107 209.271 172.283 210.729 173.825C212.187 175.367 214.169 176.331 216.214 176.898C222.669 178.69 229.614 176.734 235.582 173.692C237.92 172.5 240.217 171.105 241.911 169.102C244.675 165.833 245.555 158.507 240.119 157.226C238.248 156.785 235.888 157.412 233.998 157.522C230.984 157.697 227.971 157.957 224.994 158.473C221.625 159.057 218.301 159.962 215.179 161.373Z" fill="#A62D21"/>
<path d="M116.14 194.15C122.439 200.842 131.499 204.852 140.687 205.015C145.307 205.097 150.225 204.097 153.532 200.87C156.147 198.317 157.444 194.626 157.638 190.976C158.003 184.065 154.565 177.222 149.238 172.803C143.912 168.384 136.885 166.279 129.964 166.271C124.387 166.264 115.895 168.134 112.537 173.2C107.873 180.236 110.836 188.516 116.14 194.15Z" fill="#DAEBF3"/>
<path d="M123.444 176.679C121.385 181.747 125.217 186.926 129.493 189.454C133.673 191.854 139.498 194.742 144.148 192.261C147.303 190.204 147.482 185.801 146.162 182.576C143.724 174.17 128.647 167.674 123.444 176.679Z" fill="#AFCBD8"/>
<path d="M186.957 207.844C171.222 204.727 163.449 218.626 177.469 228.194C183.828 231.958 192.324 232.062 198.608 228.128C201.298 226.649 202.878 223.761 202.219 220.701C201.084 213.416 193.835 208.861 186.957 207.844Z" fill="#DAEBF3"/>
<path d="M188.73 213.246C186.349 212.608 183.751 212.541 181.47 213.476C180.705 213.79 179.92 214.291 179.701 215.089C179.467 215.94 179.958 216.816 180.515 217.501C182.704 220.197 186.137 221.666 189.584 222.082C190.81 222.23 192.078 222.254 193.256 221.882C194.433 221.51 195.517 220.692 195.973 219.544C196.645 217.854 195.704 216.439 194.278 215.642C192.518 214.657 190.686 213.77 188.73 213.246Z" fill="#AFCBD8"/>
<path d="M-8.47051 182.858C-19.6866 190.506 -21.5103 206.761 -12.4702 216.897C0.811398 232.033 28.4509 231.551 42.0779 217.12C54.1919 203.21 48.8199 189.222 33.4707 182.207C32.6062 181.812 31.7529 181.391 30.909 180.954C18.7125 174.633 2.70701 174.172 -8.47051 182.858Z" fill="#DAEBF3"/>
<path d="M6.93307 191.046C3.37938 192.417 0.37457 196.264 1.26146 200.135C3.58721 207.872 17.9552 210.205 24.7904 208.093C35.4869 204.409 33.4252 193.116 23.1758 190.696C17.914 189.364 12.0597 189.052 6.93307 191.046Z" fill="#AFCBD8"/>
<path d="M222.875 78.7677C198.192 99.2603 209.963 128.855 242.496 119.161C256.359 114.038 267.236 100.981 269.055 86.2654C270.151 80.2242 267.663 74.1298 262.081 71.2929C249.341 63.8677 233.128 69.3743 222.875 78.7677Z" fill="#DB4333"/>
<path d="M233.496 82.8273C229.503 85.7189 226.122 89.6683 224.696 94.3876C224.218 95.9713 224.006 97.8212 224.968 99.1671C225.994 100.604 227.974 100.946 229.74 100.947C236.684 100.949 243.295 97.4727 248.288 92.6463C250.065 90.9294 251.7 88.9921 252.608 86.6944C253.516 84.3968 253.613 81.6832 252.407 79.5275C250.63 76.3535 247.246 76.0296 244.212 77.2374C240.464 78.7291 236.775 80.4528 233.496 82.8273Z" fill="#A62D21"/>
<path d="M-6.85385 0.412354C-1.87644 27.082 11.1835 52.1885 30.1635 71.5741C49.1435 90.9597 73.968 104.548 100.527 110.088C112.058 119.094 110.76 132.78 107.972 144.839C105.184 156.898 95.5287 167.643 83.3313 169.745C62.9132 169.18 45.1806 162.467 28.4048 150.975C1.68404 132.67 -20.3639 107.602 -35.1081 78.7629" fill="#DB4333"/>
<path d="M-6.85385 0.412354C-1.87643 27.082 11.1835 52.1885 30.1635 71.5741C49.1435 90.9597 73.968 104.548 100.527 110.088C77.1317 107.961 68.9741 123.101 66.1857 135.16C63.3973 147.219 61.769 169.148 83.3313 169.745C62.9132 169.18 45.1806 162.467 28.4048 150.975C1.68404 132.67 -20.3639 107.602 -35.1081 78.7629" fill="#AA1708"/>
<path d="M77.982 125.643C73.5482 132.314 71.4751 140.611 71.4973 148.605C70.8051 159.368 77.9728 167.878 87.6904 162.904C89.3457 149.868 85.792 136.212 77.982 125.643Z" fill="#0C182F"/>
<path d="M102.21 127.242C100.492 117.65 95.6393 110.413 85.7847 117.545C82.6472 119.755 80.0572 122.521 77.9823 125.643C85.7922 136.212 89.3457 149.868 87.6907 162.904C88.5152 162.482 89.3584 161.962 90.2163 161.339C100.142 153.743 103.855 139.336 102.21 127.242Z" fill="#9D2640"/>
</svg>
