<svg width="1026" height="48" viewBox="0 0 1026 48" fill="none" xmlns="http://www.w3.org/2000/svg">
<line y1="23.271" x2="346" y2="23.271" stroke="#DAEBF3" stroke-width="2"/>
<rect width="46.8" height="46.8" transform="matrix(1 0 0 -1 396 47.6709)" fill="#F2FAFE"/>
<circle r="23.4" transform="matrix(1 0 0 -1 419.4 24.2709)" fill="#213456"/>
<rect width="23.4" height="46.8" transform="matrix(1 0 0 -1 419.4 47.6709)" fill="#F2FAFE"/>
<mask id="mask0_512_1718" style="mask-type:alpha" maskUnits="userSpaceOnUse" x="396" y="0" width="47" height="48">
<rect width="46.8" height="46.8" transform="matrix(1 0 0 -1 396 47.6709)" fill="#F2FAFE"/>
</mask>
<g mask="url(#mask0_512_1718)">
<circle r="23.4" transform="matrix(1 0 0 -1 442.8 47.6708)" fill="#88BFE8"/>
<circle r="23.4" transform="matrix(1 0 0 -1 442.8 0.871)" fill="#88BFE8"/>
</g>
<rect x="442.8" y="0.871094" width="46.8" height="46.8" fill="#88BFE8"/>
<rect x="454.5" y="12.5713" width="23.4" height="23.4" fill="#F2FAFE"/>
<rect width="46.8" height="46.8" transform="matrix(-1 0 0 1 536.4 0.871094)" fill="#88BFE8"/>
<mask id="mask1_512_1718" style="mask-type:alpha" maskUnits="userSpaceOnUse" x="489" y="0" width="48" height="48">
<rect width="46.8" height="46.8" transform="matrix(-1 0 0 1 536.4 0.871094)" fill="#F2FAFE"/>
</mask>
<g mask="url(#mask1_512_1718)">
<circle r="46.8" transform="matrix(-1 0 0 1 536.4 0.871281)" fill="#F2FAFE"/>
</g>
<circle r="11.7" transform="matrix(-1 0 0 1 524.7 12.5711)" fill="#F7D76A"/>
<rect x="536.4" y="0.871094" width="46.8" height="46.8" fill="#F2FAFE"/>
<circle cx="559.8" cy="24.2711" r="23.4" fill="#F7D76A"/>
<rect x="559.8" y="0.871094" width="23.4" height="23.4" fill="#F2FAFE"/>
<circle cx="559.895" cy="24.2713" r="11.7" fill="#F2FAFE"/>
<rect x="583.2" y="0.871094" width="46.8" height="46.8" fill="#F2FAFE"/>
<circle cx="594.9" cy="12.5711" r="11.7" fill="#F7D76A"/>
<circle cx="618.3" cy="12.5711" r="11.7" fill="#88BFE8"/>
<circle cx="618.3" cy="35.971" r="11.7" fill="#F7D76A"/>
<circle cx="594.9" cy="35.971" r="11.7" fill="#88BFE8"/>
<line x1="680" y1="23.271" x2="1026" y2="23.271" stroke="#DAEBF3" stroke-width="2"/>
</svg>