<svg width="294" height="17" viewBox="0 0 294 17" fill="none" xmlns="http://www.w3.org/2000/svg">
<line x1="0.75" y1="7.94971" x2="90.8175" y2="7.94971" stroke="#DAEBF3"/>
<rect width="16.848" height="16.848" transform="matrix(1 0 0 -1 104.88 16.874)" fill="#F2FAFE"/>
<circle r="8.424" transform="matrix(1 0 0 -1 113.304 8.45002)" fill="#213456"/>
<rect width="8.424" height="16.848" transform="matrix(1 0 0 -1 113.304 16.874)" fill="#F2FAFE"/>
<mask id="mask0_513_3409" style="mask-type:alpha" maskUnits="userSpaceOnUse" x="104" y="0" width="18" height="17">
<rect width="16.848" height="16.848" transform="matrix(1 0 0 -1 104.88 16.874)" fill="#F2FAFE"/>
</mask>
<g mask="url(#mask0_513_3409)">
<circle r="8.424" transform="matrix(1 0 0 -1 121.728 16.8739)" fill="#88BFE8"/>
<circle r="8.424" transform="matrix(1 0 0 -1 121.728 0.0261965)" fill="#88BFE8"/>
</g>
<rect x="121.728" y="0.0258789" width="16.848" height="16.848" fill="#88BFE8"/>
<rect x="125.94" y="4.23779" width="8.424" height="8.424" fill="#F2FAFE"/>
<rect width="16.848" height="16.848" transform="matrix(-1 0 0 1 155.424 0.0258789)" fill="#88BFE8"/>
<mask id="mask1_513_3409" style="mask-type:alpha" maskUnits="userSpaceOnUse" x="138" y="0" width="18" height="17">
<rect width="16.848" height="16.848" transform="matrix(-1 0 0 1 155.424 0.0258789)" fill="#F2FAFE"/>
</mask>
<g mask="url(#mask1_513_3409)">
<circle r="16.848" transform="matrix(-1 0 0 1 155.424 0.025732)" fill="#F2FAFE"/>
</g>
<circle r="4.212" transform="matrix(-1 0 0 1 151.212 4.23788)" fill="#F7D76A"/>
<rect x="155.424" y="0.0258789" width="16.848" height="16.848" fill="#F2FAFE"/>
<circle cx="163.848" cy="8.44988" r="8.424" fill="#F7D76A"/>
<rect x="163.848" y="0.0258789" width="8.424" height="8.424" fill="#F2FAFE"/>
<circle cx="163.882" cy="8.44979" r="4.212" fill="#F2FAFE"/>
<rect x="172.272" y="0.0258789" width="16.848" height="16.848" fill="#F2FAFE"/>
<circle cx="176.484" cy="4.23788" r="4.212" fill="#F7D76A"/>
<circle cx="184.908" cy="4.23788" r="4.212" fill="#88BFE8"/>
<circle cx="184.908" cy="12.6617" r="4.212" fill="#F7D76A"/>
<circle cx="176.484" cy="12.6617" r="4.212" fill="#88BFE8"/>
<line x1="203.183" y1="7.94971" x2="293.25" y2="7.94971" stroke="#DAEBF3"/>
</svg>
