<svg width="32" height="32" viewBox="0 0 32 32" fill="none" xmlns="http://www.w3.org/2000/svg">
<path d="M18.9247 14.7096C18.844 14.7896 18.7762 14.9259 18.719 15.0664C18.6591 15.2135 18.602 15.3886 18.5499 15.5644C18.4839 15.7874 18.4221 16.027 18.3739 16.2133C18.3478 16.3145 18.3257 16.4 18.3093 16.4585C18.2556 16.6492 18.1985 16.8435 18.1394 17.0447C18.0858 17.227 18.0306 17.415 17.9748 17.6109C17.9486 17.7016 17.9256 17.7774 17.9034 17.8509C17.8725 17.9528 17.843 18.0502 17.808 18.1767C17.778 17.9525 17.7402 17.7294 17.6946 17.5077C17.5191 16.2451 17.3158 14.9638 17.1127 13.6838L17.1112 13.6743C16.9078 12.3928 16.7047 11.1125 16.5295 9.85056C16.5321 9.62713 16.4625 9.40872 16.3308 9.2279L16.3309 9.22784L16.3276 9.22356C16.2606 9.13865 16.1772 9.06807 16.0825 9.016C15.9877 8.96393 15.8834 8.93143 15.7758 8.92044L15.7687 8.91971H15.7615H15.5928H15.585L15.5772 8.92057C15.4114 8.93902 15.2558 9.00965 15.1327 9.12226C15.011 9.23362 14.9274 9.38036 14.8936 9.54174C14.8089 9.84348 14.7132 10.3403 14.6172 10.8446C14.6125 10.8695 14.6077 10.8945 14.603 10.9194C14.5102 11.4069 14.4172 11.8962 14.3314 12.238L14.3309 12.2398C14.2324 12.6556 14.15 13.0843 14.0694 13.5032C14.0344 13.6851 13.9997 13.8653 13.9643 14.0417C13.927 14.2266 13.8906 14.4099 13.8546 14.5909C13.8311 14.7093 13.8078 14.8267 13.7846 14.9428C13.7341 15.1654 13.6945 15.3903 13.666 15.6166C13.5993 15.5444 13.537 15.4681 13.4795 15.388L13.4797 15.3879L13.4741 15.3809C13.4348 15.3329 13.3922 15.2776 13.3452 15.2165L13.3382 15.2075C13.2889 15.1434 13.2354 15.0741 13.1788 15.0047C13.0664 14.867 12.9368 14.7231 12.7939 14.6132C12.6516 14.5038 12.4829 14.4181 12.2942 14.4197C12.1006 14.4214 11.9154 14.5145 11.7428 14.7028L11.7428 14.7029C11.6681 14.7844 11.5676 14.952 11.4613 15.1455C11.3517 15.345 11.227 15.5891 11.1033 15.8373C10.9917 16.0612 10.8816 16.2872 10.7836 16.4884C10.6848 16.6911 10.5984 16.8687 10.535 16.9935C10.4693 16.9923 10.3881 16.9901 10.2952 16.9876C10.2476 16.9863 10.1969 16.9849 10.1437 16.9836C9.93752 16.9783 9.69658 16.9733 9.45893 16.9747C9.22189 16.9761 8.98493 16.9839 8.78743 17.0047C8.68876 17.015 8.59698 17.0289 8.5185 17.0478C8.44345 17.0659 8.36745 17.0915 8.30958 17.1321C8.00662 17.3432 7.8966 17.7188 8.00288 18.0424C8.11249 18.376 8.43965 18.6285 8.95246 18.6285H11.0703C11.3655 18.6285 11.5602 18.4523 11.694 18.2583C11.7883 18.1217 11.8652 17.9556 11.9294 17.8169C11.9518 17.7685 11.9727 17.7235 11.9922 17.6842C12.1835 17.3714 12.3514 17.0449 12.4946 16.7076C12.5061 16.7242 12.5205 16.7446 12.5376 16.7664L12.5376 16.7664L12.5395 16.7687L13.472 17.9029C13.541 18.0032 13.6315 18.087 13.7369 18.148L13.8074 18.0264L13.7369 18.1481C13.8443 18.2103 13.9644 18.2474 14.0882 18.2565C14.212 18.2657 14.3362 18.2466 14.4516 18.2008C14.567 18.1551 14.6704 18.0837 14.7543 17.9922L14.7543 17.9922L14.7567 17.9895C14.8057 17.9332 14.8449 17.8457 14.8779 17.7562C14.9129 17.6613 14.9479 17.5442 14.9823 17.4138C15.0512 17.1525 15.1206 16.8275 15.1858 16.4975C15.2438 16.2038 15.2982 15.9083 15.3462 15.6472C15.4073 15.3147 15.4582 15.0382 15.4932 14.8926L15.4933 14.8926L15.494 14.8894L15.5995 14.4009L15.791 15.6608C15.791 15.6611 15.791 15.6614 15.7911 15.6617C15.846 16.0604 15.9089 16.4605 15.9705 16.8517C16.0158 17.14 16.0604 17.4235 16.1005 17.6981L16.2396 17.6778L16.1005 17.6982C16.2174 18.4991 16.3364 19.2706 16.4556 20.0432C16.5456 20.6264 16.6356 21.2102 16.7249 21.8077L16.725 21.8078C16.7538 22.0003 16.7819 22.1765 16.8488 22.3217C16.9203 22.4772 17.0332 22.5926 17.2142 22.6761C17.3325 22.7342 17.4625 22.7648 17.5944 22.7656V22.7657L17.5982 22.7656C17.8165 22.7611 17.9883 22.6531 18.121 22.4985C18.2512 22.3469 18.3499 22.1443 18.4302 21.9288C18.511 21.7118 18.5768 21.4712 18.6365 21.2375C18.6544 21.1673 18.6717 21.0979 18.6887 21.0299C18.7288 20.8689 18.7671 20.7152 18.8076 20.5743C18.8855 20.3042 18.963 20.0432 19.0404 19.7829C19.1402 19.4469 19.2398 19.1119 19.3394 18.7595L19.3398 18.7579C19.3611 18.6789 19.4103 18.5142 19.4707 18.3119C19.5165 18.1584 19.5688 17.9834 19.6202 17.8077C19.6794 17.6058 19.7371 17.4043 19.7813 17.2383C19.7948 17.1876 19.8075 17.1388 19.8187 17.0933C19.8278 17.1044 19.8373 17.1165 19.8472 17.1296C19.8952 17.1936 19.9406 17.2665 19.991 17.3475C20.013 17.3828 20.0359 17.4197 20.0605 17.458C20.137 17.5775 20.2265 17.7066 20.3358 17.8058C20.4474 17.9072 20.5875 17.9844 20.7622 17.9844H23.1978V17.9845L23.2027 17.9843C23.3756 17.9782 23.5419 17.9168 23.6771 17.8091C23.8124 17.7013 23.9095 17.553 23.9542 17.3859C23.9988 17.2189 23.9886 17.0419 23.925 16.881C23.8615 16.7202 23.748 16.584 23.6012 16.4925L23.6 16.4918C23.5447 16.4581 23.4677 16.4397 23.3959 16.4273C23.3184 16.4139 23.2249 16.4041 23.1224 16.3969C22.9172 16.3824 22.6654 16.3776 22.4128 16.3774C22.1597 16.3772 21.9034 16.3817 21.6883 16.3863C21.6317 16.3875 21.5781 16.3887 21.5283 16.3898C21.4309 16.3919 21.3479 16.3938 21.2845 16.3947L20.202 14.8629L20.2009 14.8615C20.035 14.6329 19.8198 14.4886 19.585 14.4587C19.3479 14.4284 19.1149 14.5179 18.9247 14.7096ZM18.9247 14.7096C18.9248 14.7094 18.925 14.7092 18.9252 14.709L19.024 14.8091L18.9242 14.7101C18.9243 14.7099 18.9245 14.7097 18.9247 14.7096ZM19.204 18.7213C19.1044 19.0741 19.0056 19.4064 18.9062 19.7408C18.8289 20.0009 18.7512 20.2622 18.6725 20.5353C18.6313 20.6788 18.592 20.8364 18.5515 20.9986C18.3628 21.7551 18.1488 22.6134 17.5953 22.625L19.204 18.7213ZM19.204 18.7213C19.2257 18.6408 19.276 18.4726 19.3371 18.2678C19.4625 17.8477 19.6337 17.2741 19.6986 16.9903L19.204 18.7213ZM15.7784 0.743775L15.7784 0.743775C18.7641 0.743224 21.6829 1.62811 24.1656 3.28653C26.6484 4.94494 28.5835 7.30238 29.7264 10.0607C30.8692 12.819 31.1683 15.8543 30.586 18.7826C30.0037 21.7109 28.566 24.4008 26.4548 26.512C24.3436 28.6232 21.6537 30.0609 18.7254 30.6432C15.797 31.2256 12.7617 30.9264 10.0034 29.7836C7.24513 28.6408 4.88769 26.7056 3.22928 24.2229C1.57086 21.7402 0.685973 18.8214 0.686524 15.8357V15.8356C0.686524 11.833 2.27656 7.99435 5.10683 5.16408C7.93711 2.3338 11.7758 0.743775 15.7784 0.743775Z" fill="#0C182F" stroke="#0C182F" stroke-width="0.28125"/>
</svg>
