<svg width="29" height="29" viewBox="0 0 29 29" fill="none" xmlns="http://www.w3.org/2000/svg">
<path d="M14.5843 28C7.1218 28 1.07227 21.9559 1.07227 14.5C1.07227 7.04414 7.1218 1 14.5843 1C22.0468 1 28.0964 7.04414 28.0964 14.5C28.0964 21.9559 22.0468 28 14.5843 28Z" stroke="white" stroke-width="1.5" stroke-miterlimit="10"/>
<path d="M12.5252 22.6581H15.8127V14.429H18.1061L18.3475 11.6765H15.8056C15.8056 11.6765 15.8056 10.6479 15.8056 10.1087C15.8056 9.45609 15.9334 9.2007 16.5653 9.2007C17.0694 9.2007 18.3475 9.2007 18.3475 9.2007V6.3418C18.3475 6.3418 16.473 6.3418 16.0683 6.3418C13.6186 6.3418 12.5181 7.42009 12.5181 9.47737C12.5181 11.2722 12.5181 11.6765 12.5181 11.6765H10.8069V14.4645H12.5181V22.6581H12.5252Z" fill="white"/>
</svg>
