<svg width="29" height="29" viewBox="0 0 29 29" fill="none" xmlns="http://www.w3.org/2000/svg">
<path d="M14.5121 28C7.04954 28 1 21.9559 1 14.5C1 7.04414 7.04954 1 14.5121 1C21.9746 1 28.0241 7.04414 28.0241 14.5C28.0241 21.9559 21.9746 28 14.5121 28Z" stroke="white" stroke-width="1.5" stroke-miterlimit="10"/>
<path d="M14.5122 8.43476C16.4932 8.43476 16.7275 8.44185 17.5085 8.47732C18.2328 8.51279 18.6233 8.63339 18.886 8.73271C19.2339 8.8675 19.4753 9.03066 19.7381 9.28605C20.0008 9.54853 20.157 9.78972 20.2919 10.1373C20.3913 10.3998 20.512 10.79 20.5475 11.5136C20.583 12.2939 20.5901 12.528 20.5901 14.5073C20.5901 16.4865 20.583 16.7206 20.5475 17.501C20.512 18.2246 20.3913 18.6147 20.2919 18.8772C20.157 19.2248 19.9937 19.466 19.7381 19.7285C19.4824 19.9839 19.2339 20.1471 18.886 20.2818C18.6233 20.3812 18.2328 20.5018 17.5085 20.5372C16.7275 20.5727 16.4932 20.5798 14.5122 20.5798C12.5312 20.5798 12.2968 20.5727 11.5158 20.5372C10.7916 20.5018 10.401 20.3812 10.1383 20.2818C9.7904 20.1471 9.54899 19.9839 9.28627 19.7285C9.02356 19.466 8.86735 19.2248 8.73244 18.8772C8.63304 18.6147 8.51233 18.2246 8.47683 17.501C8.44133 16.7206 8.43422 16.4865 8.43422 14.5073C8.43422 12.528 8.44133 12.2939 8.47683 11.5136C8.51233 10.79 8.63304 10.3998 8.73244 10.1373C8.86735 9.78972 9.03066 9.54853 9.28627 9.28605C9.54899 9.02356 9.7904 8.8675 10.1383 8.73271C10.401 8.63339 10.7916 8.51279 11.5158 8.47732C12.3039 8.44185 12.5383 8.43476 14.5122 8.43476ZM14.5122 7.10107C12.5028 7.10107 12.2471 7.10817 11.459 7.14364C10.6708 7.17911 10.1312 7.3068 9.66259 7.49125C9.17267 7.68279 8.76084 7.93108 8.34901 8.34254C7.93719 8.75399 7.68158 9.16545 7.49697 9.65494C7.31236 10.1231 7.19165 10.6623 7.14905 11.4497C7.11354 12.2372 7.10645 12.4926 7.10645 14.5002C7.10645 16.5078 7.11354 16.7632 7.14905 17.5506C7.18455 18.3381 7.31236 18.8772 7.49697 19.3454C7.68868 19.8349 7.93719 20.2464 8.34901 20.6578C8.76084 21.0693 9.17267 21.3247 9.66259 21.5091C10.1312 21.6936 10.6708 21.8142 11.459 21.8567C12.2471 21.8922 12.5028 21.8993 14.5122 21.8993C16.5216 21.8993 16.7772 21.8922 17.5653 21.8567C18.3535 21.8213 18.8931 21.6936 19.3617 21.5091C19.8517 21.3176 20.2635 21.0693 20.6753 20.6578C21.0871 20.2464 21.3427 19.8349 21.5273 19.3454C21.712 18.8772 21.8327 18.3381 21.8753 17.5506C21.9108 16.7632 21.9179 16.5078 21.9179 14.5002C21.9179 12.4926 21.9108 12.2372 21.8753 11.4497C21.8398 10.6623 21.712 10.1231 21.5273 9.65494C21.3356 9.16545 21.0871 8.75399 20.6753 8.34254C20.2635 7.93108 19.8517 7.67569 19.3617 7.49125C18.8931 7.3068 18.3535 7.1862 17.5653 7.14364C16.7772 7.10817 16.5287 7.10107 14.5122 7.10107Z" fill="white"/>
<path d="M14.5121 10.6978C12.4104 10.6978 10.7063 12.4003 10.7063 14.5002C10.7063 16.6 12.4104 18.3026 14.5121 18.3026C16.6138 18.3026 18.3179 16.6 18.3179 14.5002C18.3179 12.4003 16.6138 10.6978 14.5121 10.6978ZM14.5121 16.9689C13.1488 16.9689 12.0412 15.8622 12.0412 14.5002C12.0412 13.1381 13.1488 12.0314 14.5121 12.0314C15.8754 12.0314 16.983 13.1381 16.983 14.5002C16.983 15.8622 15.8754 16.9689 14.5121 16.9689Z" fill="white"/>
<path d="M19.3618 10.5489C19.3618 11.0384 18.9641 11.4356 18.4742 11.4356C17.9843 11.4356 17.5867 11.0384 17.5867 10.5489C17.5867 10.0594 17.9843 9.66211 18.4742 9.66211C18.9641 9.66211 19.3618 10.0594 19.3618 10.5489Z" fill="white"/>
</svg>
