<svg width="29" height="29" viewBox="0 0 29 29" fill="none" xmlns="http://www.w3.org/2000/svg">
<path d="M14.2188 0.743775H14.2189C16.9301 0.743775 19.5804 1.54774 21.8347 3.05401C24.089 4.56028 25.846 6.7012 26.8835 9.20603C27.9211 11.7109 28.1925 14.4671 27.6636 17.1262C27.1347 19.7853 25.8291 22.2279 23.912 24.145C21.9949 26.0621 19.5523 27.3677 16.8932 27.8966C14.2341 28.4256 11.4778 28.1541 8.973 27.1166C6.46816 26.079 4.32724 24.322 2.82097 22.0677C1.3147 19.8134 0.510742 17.1631 0.510742 14.4519V14.4519C0.510377 12.6516 0.864694 10.8689 1.55346 9.20558C2.24223 7.54227 3.25195 6.03095 4.52493 4.75797C5.79792 3.48498 7.30923 2.47526 8.97254 1.7865C10.6358 1.09773 12.4186 0.743409 14.2188 0.743775ZM14.1103 17.0335C14.1097 17.0652 14.1081 17.0911 14.1057 17.1113C14.0674 17.1122 14.0291 17.1065 13.9924 17.0945C13.9358 17.076 13.8851 17.043 13.8453 16.9988L13.8453 16.9987L13.843 16.9964C13.7687 16.9175 13.6761 16.8581 13.5735 16.8232C13.4708 16.7884 13.3612 16.7792 13.2542 16.7965L13.2542 16.7965L13.2513 16.797C13.0504 16.8338 12.8679 16.9374 12.7333 17.0911C12.5987 17.2447 12.52 17.4394 12.51 17.6434C12.5 17.8474 12.5592 18.0488 12.6781 18.2149C12.7968 18.3808 12.9681 18.5017 13.1641 18.5581C13.2741 18.5908 13.3905 18.5961 13.503 18.5735C13.6139 18.5512 13.7177 18.5024 13.8058 18.4315C13.8524 18.3987 13.888 18.3706 13.9148 18.3494C13.9198 18.3455 13.9244 18.3418 13.9288 18.3384C13.9596 18.3142 13.9709 18.3071 13.9796 18.3033C13.9908 18.2983 14.0113 18.292 14.1105 18.3002C14.1105 18.3287 14.1101 18.3653 14.1092 18.4121H14.1092V18.4147V20.3441V20.4729L14.2375 20.4842C14.4217 20.5004 15.1733 20.5002 15.9387 20.4963C16.3061 20.4945 16.6792 20.4918 17.0007 20.4894C17.355 20.4868 17.6467 20.4847 17.7992 20.4847H18.376C18.5755 20.4918 18.7748 20.4658 18.9657 20.4077C19.0193 20.4032 19.0698 20.3849 19.1115 20.3651C19.1615 20.3413 19.2103 20.3099 19.2542 20.2773C19.3404 20.2132 19.4208 20.1346 19.468 20.0737C19.6812 19.8019 19.7381 19.4446 19.7485 19.0853C19.7538 18.9037 19.7472 18.7147 19.7395 18.528C19.7386 18.5058 19.7376 18.4836 19.7367 18.4614C19.7298 18.2961 19.7229 18.133 19.7229 17.9732V15.0763C19.7229 15.0654 19.723 15.052 19.7224 15.0407C19.7217 15.0292 19.72 15.0068 19.7101 14.9819C19.6996 14.9558 19.6847 14.9385 19.6796 14.9326C19.6728 14.9247 19.6734 14.9256 19.6696 14.9209L19.631 14.8726L19.5693 14.8685C19.0313 14.8322 18.4916 14.8265 17.953 14.8514L17.7392 14.8613L17.8331 15.0536C17.9081 15.2071 17.9418 15.3774 17.931 15.5478C17.9202 15.7182 17.8653 15.8829 17.7716 16.0257L17.7716 16.0257C17.6477 16.2146 17.4658 16.3582 17.2533 16.4349C17.0408 16.5116 16.8092 16.5173 16.5932 16.4511C16.3772 16.3849 16.1885 16.2503 16.0555 16.0677C15.9226 15.8851 15.8524 15.6642 15.8557 15.4383H15.8557V15.4363C15.8557 15.3856 15.8647 15.3454 15.8764 15.3014C15.8776 15.2969 15.8789 15.292 15.8803 15.2868C15.8901 15.2511 15.9037 15.2011 15.906 15.1479L15.9249 15.07L15.967 14.8963H15.7882H14.2442H14.1036V15.0369V16.7244C14.1036 16.7663 14.1053 16.814 14.1069 16.8602C14.1072 16.867 14.1074 16.8738 14.1076 16.8806C14.1095 16.9346 14.1111 16.9866 14.1103 17.0335ZM14.097 17.1518C14.097 17.1517 14.0974 17.1503 14.0985 17.1482C14.0977 17.1508 14.0971 17.1519 14.097 17.1518ZM14.1064 9.2094V10.8266L14.1057 10.8271L14.1064 10.8274V10.8632V11.0542L14.2888 10.9974L14.4153 10.958L14.7151 10.8648L14.65 10.8257C14.7331 10.801 14.8208 10.7922 14.9085 10.8006L14.9089 10.8007C15.1782 10.8259 15.4275 10.9539 15.6049 11.1581C15.7823 11.3623 15.8742 11.627 15.8615 11.8972L15.8615 11.8982C15.8546 12.0718 15.8036 12.2408 15.7132 12.3892C15.6228 12.5376 15.496 12.6604 15.3448 12.7461L15.3448 12.746L15.3404 12.7488C15.0678 12.9168 14.849 12.9134 14.6806 12.8698C14.5932 12.8472 14.5163 12.8127 14.4473 12.779C14.435 12.7729 14.4217 12.7663 14.4083 12.7596C14.3876 12.7492 14.3668 12.7388 14.3494 12.7306C14.3203 12.7168 14.2846 12.701 14.249 12.6924L14.0754 12.6505V12.8291V14.5307V14.6713H14.216C14.2874 14.6713 14.4182 14.6703 14.5814 14.6691C14.812 14.6674 15.1074 14.6652 15.3916 14.6646C15.6363 14.6641 15.8747 14.6647 16.0628 14.6677C16.1549 14.6692 16.2341 14.6712 16.2956 14.6739C16.2905 14.6977 16.2827 14.7179 16.2735 14.7361C16.2527 14.7775 16.2248 14.8112 16.1851 14.8591C16.1779 14.8679 16.1702 14.8771 16.1622 14.887C16.1139 14.9459 16.0552 15.0222 16.022 15.1265C15.988 15.233 15.9842 15.3555 16.0199 15.5054L16.0198 15.5054L16.0206 15.5084C16.0702 15.6982 16.1802 15.8667 16.3341 15.9884C16.4879 16.1101 16.6772 16.1784 16.8734 16.1829C17.0695 16.1874 17.2618 16.1279 17.4211 16.0134C17.5804 15.8989 17.698 15.7357 17.7563 15.5483L17.7563 15.5482C17.8553 15.2284 17.7208 15.0084 17.6125 14.8575C17.5988 14.8385 17.5864 14.8215 17.5751 14.8061C17.5378 14.7552 17.5126 14.7208 17.4968 14.6862C17.4956 14.6835 17.4945 14.6809 17.4936 14.6786C17.6524 14.6675 18.014 14.672 18.4047 14.6776L18.4475 14.6782C18.825 14.6836 19.2183 14.6892 19.4447 14.6797C19.4644 14.6797 19.486 14.6797 19.5054 14.6786C19.5253 14.6775 19.553 14.6749 19.5814 14.6652C19.6131 14.6545 19.6461 14.6349 19.672 14.6013C19.6961 14.5701 19.7065 14.5366 19.7118 14.5104L19.7145 14.4968V14.4828V11.4544C19.7397 10.9429 19.7301 10.4303 19.6858 9.92005L19.6849 9.90936L19.6824 9.89894C19.6303 9.68496 19.5151 9.49157 19.3518 9.3438C19.1885 9.19603 18.9846 9.10069 18.7665 9.07014L18.7568 9.06878H18.747H14.247H14.1064V9.2094ZM10.5225 14.7327C10.5423 14.7599 10.5583 14.7818 10.572 14.8037L10.5835 14.8382L10.6177 14.8645C10.6225 14.8681 10.6269 14.8722 10.631 14.8766C10.5524 14.8813 10.4531 14.8836 10.3374 14.8838C10.1417 14.8842 9.9114 14.8789 9.67928 14.8735L9.66386 14.8731C9.4378 14.8678 9.21074 14.8624 9.01737 14.8625C8.82386 14.8625 8.65042 14.8678 8.54544 14.8874L8.45487 14.9044L8.43429 14.9942C8.42888 15.0178 8.42704 15.0536 8.42578 15.0812C8.42423 15.1153 8.42295 15.1603 8.42188 15.214C8.41974 15.3218 8.41841 15.4681 8.41768 15.6407C8.41623 15.9861 8.4172 16.4389 8.41914 16.9032C8.42115 17.3868 8.42421 17.8823 8.42668 18.2828C8.42895 18.6513 8.43073 18.9393 8.43074 19.0633C8.42772 19.2567 8.44287 19.4499 8.47597 19.6404C8.47923 19.7406 8.5183 19.8397 8.56853 19.9258C8.62214 20.0178 8.695 20.1064 8.7755 20.1828C8.85595 20.2591 8.94776 20.3269 9.0416 20.3745C9.1274 20.418 9.22601 20.4502 9.32411 20.4461C9.50546 20.4746 9.68904 20.4866 9.87258 20.4819C10.0127 20.4819 10.3158 20.4833 10.6962 20.485C11.0851 20.4868 11.5548 20.4889 12.0141 20.4903C12.4691 20.4917 12.9137 20.4924 13.2583 20.4914C13.597 20.4904 13.8515 20.4877 13.9154 20.4812L14.0417 20.4682V20.3413V18.7775V18.7241L14.0126 18.6913C14.0106 18.6882 14.0084 18.6849 14.006 18.6816C13.9868 18.6556 13.96 18.638 13.931 18.6298C13.9165 18.6257 13.9036 18.6247 13.8949 18.6245C13.8908 18.6237 13.8837 18.6221 13.8726 18.6192L13.8156 18.604L13.7649 18.6339C13.6152 18.7223 13.4394 18.7558 13.2677 18.7286L13.2671 18.7285C13.0587 18.6965 12.8647 18.6027 12.7101 18.4593C12.5556 18.3158 12.4475 18.1294 12.4 17.9239C12.3524 17.7185 12.3675 17.5036 12.4434 17.3068C12.5191 17.1104 12.6517 16.9412 12.8244 16.8209C12.9755 16.72 13.1517 16.6629 13.3333 16.656C13.5154 16.649 13.6958 16.6927 13.8545 16.7822L14.0642 16.9005V16.6597V15.0116V14.8856L13.9389 14.8718C13.7877 14.8552 13.4547 14.8556 13.1214 14.8594C12.9824 14.861 12.8421 14.8632 12.7113 14.8653C12.5221 14.8683 12.3528 14.871 12.2361 14.871C12.1956 14.871 12.1448 14.8743 12.0962 14.8775L12.0949 14.8776L12.0931 14.8777C12.0423 14.8811 11.9905 14.8845 11.9406 14.8858C11.8977 14.8869 11.8599 14.8863 11.829 14.8835C11.8441 14.8605 11.8651 14.8342 11.8935 14.7987C11.9032 14.7866 11.9137 14.7733 11.9252 14.7588C12.0256 14.6317 12.1701 14.4338 12.1246 14.1599C12.0968 13.9757 12.0124 13.8047 11.8831 13.6707C11.7534 13.5364 11.5851 13.4458 11.4016 13.4117C11.218 13.3775 11.0284 13.4015 10.8591 13.4802C10.6912 13.5583 10.5516 13.6865 10.4594 13.847C10.3833 13.9641 10.3413 14.0754 10.3286 14.1824C10.3157 14.2912 10.334 14.3873 10.3665 14.4709C10.3983 14.5526 10.4436 14.6221 10.4832 14.6782C10.4978 14.6989 10.5108 14.7167 10.5225 14.7327Z" fill="#0C182F" stroke="#0C182F" stroke-width="0.28125"/>
</svg>
