<svg width="29" height="29" viewBox="0 0 29 29" fill="none" xmlns="http://www.w3.org/2000/svg">
<path d="M14.5362 28C7.0737 28 1.02417 21.9559 1.02417 14.5C1.02417 7.04414 7.0737 1 14.5362 1C21.9987 1 28.0483 7.04414 28.0483 14.5C28.0483 21.9559 21.9987 28 14.5362 28Z" stroke="white" stroke-width="1.5" stroke-miterlimit="10"/>
<path d="M11.206 11.4849H8.40845V20.5085H11.206V11.4849Z" fill="white"/>
<path d="M9.79306 10.3074C10.709 10.3074 11.4475 9.56248 11.4475 8.64025C11.4475 7.71802 10.709 6.97314 9.79306 6.97314C8.87711 6.97314 8.13867 7.71802 8.13867 8.64025C8.13867 9.56248 8.87711 10.3074 9.79306 10.3074Z" fill="white"/>
<path d="M15.6722 15.7771C15.6722 14.5072 16.2545 13.7553 17.3763 13.7553C18.4059 13.7553 18.8958 14.4789 18.8958 15.7771C18.8958 17.0753 18.8958 20.5159 18.8958 20.5159H21.6792C21.6792 20.5159 21.6792 17.2172 21.6792 14.7981C21.6792 12.379 20.3088 11.2085 18.3917 11.2085C16.4746 11.2085 15.6722 12.6982 15.6722 12.6982V11.4852H12.9883V20.5088H15.6722C15.6722 20.5159 15.6722 17.1675 15.6722 15.7771Z" fill="white"/>
</svg>
