<svg width="30" height="29" viewBox="0 0 30 29" fill="none" xmlns="http://www.w3.org/2000/svg">
<path fill-rule="evenodd" clip-rule="evenodd" d="M14.9915 0.603152C17.7826 0.601483 20.5115 1.42762 22.8331 2.97707C25.1546 4.52651 26.9645 6.72965 28.0338 9.30783C29.103 11.886 29.3837 14.7234 28.8402 17.4611C28.2967 20.1988 26.9535 22.7138 24.9804 24.688C23.0074 26.6622 20.4932 28.0069 17.7559 28.552C15.0185 29.0972 12.1809 28.8182 9.60213 27.7505C7.02332 26.6828 4.81908 24.8742 3.26825 22.5536C1.71741 20.233 0.889649 17.5046 0.889648 14.7135C0.889648 12.8605 1.25462 11.0256 1.96373 9.31368C2.67284 7.60174 3.7122 6.04623 5.02246 4.73596C6.33273 3.4257 7.88823 2.38634 9.60018 1.67723C11.3121 0.968123 13.147 0.603152 15 0.603152H14.9915ZM13.2337 11.96C13.8686 11.893 14.5095 11.9082 15.1406 12.005C15.7031 11.4594 16.8281 10.0194 17.8518 9.93503C18.1764 9.90383 18.5035 9.95961 18.7994 10.0967C19.0953 10.2337 19.3494 10.4471 19.5355 10.7148C19.7217 10.9826 19.8331 11.2951 19.8585 11.6202C19.8839 11.9453 19.8223 12.2713 19.68 12.5647C19.3987 13.161 17.9193 14.5588 17.4075 15.0425C16.305 16.0747 14.7384 15.7794 14.28 14.4406C13.4784 14.4406 13.155 14.5588 12.899 15.1691C13.4278 16.0128 13.8356 16.6035 14.9015 16.9606C17.2753 17.7622 18.5437 15.9903 19.8543 14.6656C20.4421 14.0722 21.1256 13.5406 21.3168 12.2947C21.3982 11.7754 21.3562 11.2443 21.1941 10.7443C21.032 10.2443 20.7545 9.78954 20.3839 9.41678C20.0133 9.04403 19.5602 8.76379 19.0612 8.59876C18.5621 8.43374 18.0313 8.38857 17.5115 8.4669C16.274 8.64128 15.7228 9.35846 15.135 9.94627C14.7159 10.3625 13.4784 11.4903 13.2337 11.96ZM16.7747 17.6075C15.9309 17.706 15.7734 17.5766 15.0872 17.5766C14.3418 17.5766 13.6162 19.5622 12.0806 19.6325C11.643 19.6522 11.2127 19.516 10.8661 19.2482C10.5196 18.9804 10.2792 18.5984 10.1878 18.17C9.94871 16.8847 10.8909 16.3953 11.2846 15.8244C10.9522 15.4748 10.5737 15.172 10.1596 14.9244C9.41715 15.605 8.47215 16.4938 8.67184 18.1981C8.74384 18.8268 8.99285 19.422 9.38991 19.9147C9.78697 20.4073 10.3158 20.7771 10.9147 20.981C11.5137 21.1849 12.1583 21.2145 12.7735 21.0664C13.3886 20.9183 13.9491 20.5986 14.3896 20.1444C15.0028 19.5819 16.3584 18.3191 16.7887 17.6131L16.7747 17.6075ZM10.8684 14.2325C11.1217 14.6294 11.4179 14.9972 11.7515 15.3294C11.8528 15.2675 14.3306 12.2131 15.7846 15.1156C16.4737 15.0931 16.8028 14.9075 17.1093 14.4575C16.8651 13.8627 16.4527 13.3519 15.9228 12.9878C15.3928 12.6237 14.7681 12.4219 14.1253 12.4072C12.5165 12.3706 11.4253 13.521 10.8684 14.2438V14.2325Z" fill="#0C182F" stroke="#0C182F" stroke-width="0.160313" stroke-miterlimit="22.93"/>
</svg>
