<svg width="28" height="27" viewBox="0 0 28 27" fill="none" xmlns="http://www.w3.org/2000/svg">
<circle cx="14.0481" cy="13.5" r="12.7767" stroke="white" stroke-width="1.44667"/>
<path d="M17.8841 8.3462C17.3337 7.71244 17.0002 6.89523 17.0002 5.99463H14.4234V16.3348C14.3817 17.494 13.4311 18.4196 12.2637 18.4196C11.0795 18.4196 10.0956 17.4523 10.0956 16.2515C10.0956 14.8172 11.4798 13.7415 12.9058 14.1834V11.5483C10.0288 11.1647 7.5105 13.3996 7.5105 16.2515C7.5105 19.0283 9.81203 21.0046 12.2553 21.0046C14.8737 21.0046 17.0002 18.8782 17.0002 16.2515V11.0063C18.0092 11.7318 19.2517 12.1571 20.5859 12.1571V9.58035C20.5859 9.58035 19.0182 9.6554 17.8841 8.3462Z" fill="white"/>
</svg>
