<svg width="29" height="29" viewBox="0 0 29 29" fill="none" xmlns="http://www.w3.org/2000/svg">
<path d="M14.5604 28C7.09788 28 1.04834 21.9559 1.04834 14.5C1.04834 7.04414 7.09788 1 14.5604 1C22.0229 1 28.0725 7.04414 28.0725 14.5C28.0725 21.9559 22.0229 28 14.5604 28Z" stroke="white" stroke-width="1.5" stroke-miterlimit="10"/>
<path d="M7.3606 19.0187C8.66707 19.8558 10.2221 20.3453 11.8906 20.3453C17.3722 20.3453 20.475 15.72 20.2904 11.5629C20.8655 11.1443 21.3697 10.6264 21.7673 10.0376C21.2348 10.2717 20.6667 10.4278 20.0703 10.4988C20.6809 10.137 21.1496 9.55524 21.3697 8.86712C20.8016 9.20763 20.1697 9.44883 19.4952 9.58362C18.9555 9.009 18.1887 8.6543 17.3367 8.6543C15.4266 8.6543 14.0279 10.4349 14.461 12.2794C12.0043 12.1588 9.83153 10.9811 8.36885 9.19345C7.59491 10.52 7.96413 12.2581 9.2848 13.1377C8.80198 13.1236 8.34755 12.9888 7.94283 12.7689C7.91443 14.138 8.89428 15.4149 10.3144 15.6987C9.89544 15.8122 9.44101 15.8406 8.97949 15.7484C9.35581 16.9189 10.4493 17.7773 11.7415 17.7985C10.4919 18.7704 8.92978 19.2032 7.3606 19.0187Z" fill="white"/>
</svg>
